<svg width="16" height="13" viewBox="0 0 16 13" fill="none" xmlns="http://www.w3.org/2000/svg">
<path d="M1.54761 5.9285H13.5583L8.95919 1.54926C8.71837 1.31994 8.70903 0.938953 8.93841 0.698203C9.16749 0.457753 9.54859 0.448123 9.78971 0.677438L15.0421 5.67902C15.2693 5.90652 15.3948 6.20867 15.3948 6.53038C15.3948 6.85177 15.2693 7.15422 15.0315 7.39165L9.78941 12.383C9.67292 12.494 9.52361 12.5491 9.3743 12.5491C9.21536 12.5491 9.05642 12.4865 8.93811 12.3623C8.70873 12.1215 8.71807 11.7408 8.95889 11.5115L13.5772 7.13225H1.54761C1.21528 7.13225 0.945557 6.86261 0.945557 6.53038C0.945557 6.19814 1.21528 5.9285 1.54761 5.9285Z" fill="white"/>
</svg>
