<svg width="35" height="36" viewBox="0 0 35 36" fill="none" xmlns="http://www.w3.org/2000/svg">
<path d="M17.4999 32.5967H6.64994C6.02772 32.5967 5.52217 32.3828 5.13328 31.955C4.74439 31.5272 4.54994 31.0411 4.54994 30.4967V15.9133L15.5166 6.22999C16.0611 5.76332 16.7222 5.52999 17.4999 5.52999C18.2777 5.52999 18.9388 5.76332 19.4833 6.22999L33.3666 18.48C33.5222 18.6355 33.7166 18.6939 33.9499 18.655C34.1833 18.6161 34.3777 18.5189 34.5333 18.3633C34.6888 18.2078 34.7472 18.0133 34.7083 17.78C34.6694 17.5467 34.5722 17.3522 34.4166 17.1967L32.0833 15.2133V6.92999C32.0833 5.76332 31.6555 4.75221 30.7999 3.89665C29.9444 3.0411 28.9333 2.63276 27.7666 2.67165C26.5999 2.71054 25.6083 3.13832 24.7916 3.95499C23.9749 4.77165 23.5277 5.76332 23.4499 6.92999V7.62999L20.5333 5.06332C19.6777 4.28554 18.6666 3.89665 17.4999 3.89665C16.3333 3.89665 15.3222 4.28554 14.4666 5.06332L0.583276 17.1967C0.349943 17.3522 0.233276 17.5467 0.233276 17.78C0.233276 18.0133 0.311054 18.2078 0.46661 18.3633C0.622165 18.5189 0.81661 18.6161 1.04994 18.655C1.28328 18.6939 1.47772 18.6355 1.63328 18.48L2.91661 17.43V30.4967C2.91661 31.5078 3.28605 32.3828 4.02494 33.1217C4.76383 33.8605 5.63883 34.23 6.64994 34.23H17.4999C17.7333 34.23 17.9277 34.1522 18.0833 33.9967C18.2388 33.8411 18.3166 33.6467 18.3166 33.4133C18.3166 33.18 18.2388 32.9855 18.0833 32.83C17.9277 32.6744 17.7333 32.5967 17.4999 32.5967ZM25.0833 6.92999C25.1611 6.15221 25.4527 5.51054 25.9583 5.00499C26.4638 4.49943 27.0861 4.2661 27.8249 4.30499C28.5638 4.34388 29.1861 4.6161 29.6916 5.12165C30.1972 5.62721 30.4499 6.22999 30.4499 6.92999V13.6967L25.0833 9.02999V6.92999ZM17.4999 10.8967C16.4111 10.8967 15.4777 11.2855 14.6999 12.0633C13.9222 12.8411 13.5333 13.7744 13.5333 14.8633C13.5333 15.9522 13.9222 16.8855 14.6999 17.6633C15.4777 18.4411 16.4111 18.83 17.4999 18.83C18.5888 18.83 19.5222 18.4411 20.2999 17.6633C21.0777 16.8855 21.4666 15.9522 21.4666 14.8633C21.4666 13.7744 21.0777 12.8411 20.2999 12.0633C19.5222 11.2855 18.5888 10.8967 17.4999 10.8967ZM19.8333 14.8633C19.8333 15.5633 19.5999 16.1272 19.1333 16.555C18.6666 16.9828 18.1222 17.1967 17.4999 17.1967C16.8777 17.1967 16.3333 16.9828 15.8666 16.555C15.3999 16.1272 15.1666 15.5828 15.1666 14.9217C15.1666 14.2605 15.3999 13.6967 15.8666 13.23C16.3333 12.7633 16.8777 12.53 17.4999 12.53C18.1222 12.53 18.6666 12.7633 19.1333 13.23C19.5999 13.6967 19.8333 14.2411 19.8333 14.8633ZM34.5333 32.9467L31.7333 30.03C32.4333 29.0189 32.7833 27.8911 32.7833 26.6467C32.7833 25.0911 32.2194 23.7689 31.0916 22.68C29.9638 21.5911 28.6222 21.0467 27.0666 21.0467C25.5111 21.0467 24.1694 21.5911 23.0416 22.68C21.9138 23.7689 21.3499 25.1105 21.3499 26.705C21.3499 28.2994 21.9138 29.6411 23.0416 30.73C24.1694 31.8189 25.5111 32.3633 27.0666 32.3633C28.3888 32.3633 29.5555 31.9744 30.5666 31.1967L33.2499 33.9967C33.4055 34.1522 33.5999 34.2494 33.8333 34.2883C34.0666 34.3272 34.2805 34.2689 34.4749 34.1133C34.6694 33.9578 34.7666 33.7633 34.7666 33.53C34.7666 33.2967 34.6888 33.1022 34.5333 32.9467ZM27.0666 30.73C25.9777 30.73 25.0249 30.3411 24.2083 29.5633C23.3916 28.7855 22.9833 27.8328 22.9833 26.705C22.9833 25.5772 23.3916 24.6244 24.2083 23.8467C25.0249 23.0689 25.9972 22.68 27.1249 22.68C28.2527 22.68 29.2055 23.0689 29.9833 23.8467C30.7611 24.6244 31.1499 25.5772 31.1499 26.705C31.1499 27.8328 30.7611 28.7855 29.9833 29.5633C29.2055 30.3411 28.2333 30.73 27.0666 30.73Z" fill="#1A1A1A"/>
</svg>
