<svg width="35" height="36" viewBox="0 0 35 36" fill="none" xmlns="http://www.w3.org/2000/svg">
<g clip-path="url(#clip0_1_859)">
<path d="M18.4333 21.5932C18.2 21.5932 18.0056 21.5154 17.85 21.3599C16.8389 20.4265 16.3722 19.2988 16.45 17.9765C16.45 16.9654 16.6833 16.0321 17.15 15.1765C17.2278 14.9432 17.3639 14.8071 17.5583 14.7682C17.7528 14.7293 17.9472 14.7682 18.1417 14.8849C18.3361 15.0015 18.4528 15.1571 18.4917 15.3515C18.5306 15.546 18.5111 15.721 18.4333 15.8765C18.1222 16.2654 17.9278 16.8099 17.85 17.5099C17.6945 18.5988 18.0445 19.5321 18.9 20.3099C19.1333 20.5432 19.1917 20.8154 19.075 21.1265C18.9583 21.4376 18.7056 21.5932 18.3167 21.5932H18.4333ZM5.48334 24.7432C4.62779 24.6654 3.8889 24.3154 3.26667 23.6932C2.56667 22.9932 2.21667 22.1182 2.21667 21.0682C2.21667 20.0182 2.56667 19.1432 3.26667 18.4432L10.6167 10.9765C10.9278 10.7432 11.2 10.5488 11.4333 10.3932C11.6667 10.2376 11.8806 10.1988 12.075 10.2765C12.2695 10.3543 12.4056 10.471 12.4833 10.6265C12.5611 10.7821 12.5806 10.9571 12.5417 11.1515C12.5028 11.346 12.3861 11.5015 12.1917 11.6182C11.9972 11.7349 11.8222 11.871 11.6667 12.0265L4.31667 19.4932C3.85001 19.8821 3.61667 20.4071 3.61667 21.0682C3.61667 21.7293 3.85001 22.2543 4.31667 22.6432C4.55001 22.9543 4.86112 23.1488 5.25001 23.2265L7.46667 21.0099C7.62223 20.8543 7.81667 20.7765 8.05001 20.7765L9.10001 21.0099L9.68334 20.4265V18.5599C9.68334 18.4043 9.76112 18.2488 9.91667 18.0932C10.0722 17.9376 10.2278 17.8599 10.3833 17.8599L12.3667 17.7432L14.9333 15.1765L15.1667 14.9432C15.2445 14.7876 15.3806 14.6904 15.575 14.6515C15.7695 14.6126 15.9639 14.6515 16.1583 14.7682C16.3528 14.8849 16.4695 15.0404 16.5083 15.2349C16.5472 15.4293 16.4889 15.6043 16.3333 15.7599L15.9833 16.2265L13.1833 19.0265C13.0278 19.1821 12.8722 19.2599 12.7167 19.2599H11.2V20.7765C11.2 21.0099 11.1222 21.1654 10.9667 21.2432L9.91667 22.4099C9.76112 22.5654 9.56667 22.6043 9.33334 22.5265L8.28334 22.4099L6.06667 24.6265C5.91112 24.7043 5.71667 24.7432 5.48334 24.7432ZM18.6667 16.3432C17.2667 16.3432 15.9639 16.0321 14.7583 15.4099C13.5528 14.7876 12.5611 13.9126 11.7833 12.7849C11.0056 11.6571 10.5583 10.3932 10.4417 8.9932C10.325 7.5932 10.5389 6.27098 11.0833 5.02653C11.6278 3.78209 12.4445 2.75153 13.5333 1.93486C14.6222 1.11819 15.8667 0.593197 17.2667 0.359863C17.5 0.282085 17.7139 0.359863 17.9083 0.593197C18.1028 0.82653 18.1611 1.07931 18.0833 1.35153C18.0056 1.62375 17.8111 1.79875 17.5 1.87653C15.7889 2.10986 14.4083 2.92653 13.3583 4.32653C12.3083 5.72653 11.9 7.30153 12.1333 9.05153C12.3667 10.8015 13.1445 12.221 14.4667 13.3099C15.7889 14.3988 17.3056 14.9043 19.0167 14.8265C20.7278 14.7488 22.1861 14.0682 23.3917 12.7849C24.5972 11.5015 25.2 10.0043 25.2 8.2932C25.2 7.20431 24.9667 6.1932 24.5 5.25986C24.0333 4.32653 23.3333 3.54875 22.4 2.92653C22.2445 2.77097 22.1667 2.59597 22.1667 2.40153C22.1667 2.20708 22.225 2.03209 22.3417 1.87653C22.4583 1.72097 22.6139 1.62375 22.8083 1.58486C23.0028 1.54597 23.1778 1.60431 23.3333 1.75986C24.7333 2.77097 25.725 4.0932 26.3083 5.72653C26.8917 7.35986 26.9111 9.01264 26.3667 10.6849C25.8222 12.3571 24.85 13.7182 23.45 14.7682C22.05 15.8182 20.4556 16.3432 18.6667 16.3432ZM20.3 1.87653C20.2222 1.87653 20.125 1.85709 20.0083 1.8182C19.8917 1.77931 19.775 1.68209 19.6583 1.52653C19.5417 1.37098 19.5028 1.17653 19.5417 0.943195C19.5806 0.709862 19.7361 0.534863 20.0083 0.418198C20.2806 0.301529 20.5333 0.34042 20.7667 0.534863C21 0.729309 21.0778 0.943195 21 1.17653C20.9222 1.40986 20.825 1.58486 20.7083 1.70153C20.5917 1.8182 20.4167 1.87653 20.1833 1.87653H20.3ZM19.7167 9.6932C18.8611 9.6932 18.1611 9.42097 17.6167 8.87653C17.0722 8.33208 16.8 7.65153 16.8 6.83486C16.8 6.0182 17.0722 5.3182 17.6167 4.73486C18.1611 4.15153 18.8417 3.85986 19.6583 3.85986C20.475 3.85986 21.175 4.15153 21.7583 4.73486C22.3417 5.3182 22.6333 6.0182 22.6333 6.83486C22.6333 7.65153 22.3417 8.33208 21.7583 8.87653C21.175 9.42097 20.4945 9.6932 19.7167 9.6932ZM19.7167 5.37653C19.3278 5.37653 18.9778 5.51264 18.6667 5.78486C18.3556 6.05709 18.2 6.38764 18.2 6.77653C18.2 7.16542 18.3556 7.51542 18.6667 7.82653C18.9778 8.13764 19.3278 8.2932 19.7167 8.2932C20.1056 8.2932 20.4361 8.13764 20.7083 7.82653C20.9806 7.51542 21.1167 7.16542 21.1167 6.77653C21.1167 6.38764 20.9806 6.05709 20.7083 5.78486C20.4361 5.51264 20.1056 5.37653 19.7167 5.37653ZM29.1667 35.3599C29.0111 35.3599 28.8556 35.2821 28.7 35.1265C28.5445 34.971 28.4667 34.8154 28.4667 34.6599V26.3765V26.0265C28.3889 25.7932 28.4278 25.5793 28.5833 25.3849C28.7389 25.1904 28.9333 25.1321 29.1667 25.2099H29.9833L22.1667 18.7932L14.2333 25.0932H15.05C15.3611 25.0932 15.575 25.1904 15.6917 25.3849C15.8083 25.5793 15.8667 25.7932 15.8667 26.0265L15.75 26.3765V34.6599C15.75 34.8154 15.6917 34.971 15.575 35.1265C15.4583 35.2821 15.2833 35.3599 15.05 35.3599C14.8167 35.3599 14.6417 35.2821 14.525 35.1265C14.4083 34.971 14.35 34.8154 14.35 34.6599V26.6099H12.1333C11.8222 26.6099 11.6083 26.4543 11.4917 26.1432C11.375 25.8321 11.4333 25.5599 11.6667 25.3265L21.7 17.2765C21.7778 17.1988 21.9139 17.1599 22.1083 17.1599C22.3028 17.1599 22.4778 17.1988 22.6333 17.2765L32.55 25.3265C32.7833 25.5599 32.8417 25.8321 32.725 26.1432C32.6083 26.4543 32.3945 26.6099 32.0833 26.6099H29.9833V34.6599C29.9833 34.8154 29.9056 34.971 29.75 35.1265C29.5945 35.2821 29.4 35.3599 29.1667 35.3599ZM22.1667 23.8099C22.0111 23.8099 21.8556 23.7321 21.7 23.5765C21.5445 23.421 21.4667 23.246 21.4667 23.0515C21.4667 22.8571 21.5445 22.6821 21.7 22.5265C24.3445 20.1932 25.55 17.821 25.3167 15.4099C25.0833 13.4654 24.0333 11.5599 22.1667 9.6932C21.2333 8.75986 20.3 8.02098 19.3667 7.47653C19.0556 7.32097 18.9 7.08764 18.9 6.77653C18.9 6.46542 19.0361 6.25153 19.3083 6.13486C19.5806 6.0182 19.8333 6.03764 20.0667 6.1932C21.1556 6.81542 22.2056 7.67097 23.2167 8.75986C25.3167 10.8599 26.4833 12.9988 26.7167 15.1765C27.0278 18.1321 25.6667 20.971 22.6333 23.6932C22.5556 23.771 22.4 23.8099 22.1667 23.8099ZM24.0333 35.1265C23.8778 35.1265 23.7222 35.0682 23.5667 34.9515C23.4111 34.8349 23.3333 34.6599 23.3333 34.4265V29.9932C23.3333 29.6821 23.2361 29.4293 23.0417 29.2349C22.8472 29.0404 22.5945 28.9432 22.2833 28.9432H21.4667C21.1556 28.9432 20.9028 29.0404 20.7083 29.2349C20.5139 29.4293 20.4167 29.6821 20.4167 29.9932V34.4265C20.4167 34.6599 20.3389 34.8349 20.1833 34.9515C20.0278 35.0682 19.8528 35.1265 19.6583 35.1265C19.4639 35.1265 19.2889 35.0682 19.1333 34.9515C18.9778 34.8349 18.9 34.6599 18.9 34.4265V29.9932C18.9 29.2932 19.1528 28.6904 19.6583 28.1849C20.1639 27.6793 20.7667 27.4265 21.4667 27.4265H22.2833C22.9833 27.4265 23.5861 27.6793 24.0917 28.1849C24.5972 28.6904 24.8111 29.2932 24.7333 29.9932V34.4265C24.8111 34.6599 24.7722 34.8349 24.6167 34.9515C24.4611 35.0682 24.2667 35.1265 24.0333 35.1265Z" fill="#1A1A1A"/>
</g>
<defs>
<clipPath id="clip0_1_859">
<rect width="35" height="35" fill="white" transform="matrix(1 0 0 -1 0 35.3599)"/>
</clipPath>
</defs>
</svg>
