<svg width="35" height="36" viewBox="0 0 35 36" fill="none" xmlns="http://www.w3.org/2000/svg">
<g clip-path="url(#clip0_1_854)">
<path d="M13.3 22.1032C13.3 22.3366 13.3778 22.5116 13.5333 22.6282C13.6889 22.7449 13.8444 22.8032 14 22.8032C14.1556 22.8032 14.3111 22.7449 14.4667 22.6282C14.6222 22.5116 14.7 22.356 14.7 22.1616C14.7 21.9671 14.6222 21.8116 14.4667 21.6949C14.3111 21.5782 14.1556 21.5199 14 21.5199C13.8444 21.5199 13.6889 21.5782 13.5333 21.6949C13.3778 21.8116 13.3 21.9477 13.3 22.1032ZM16.8 22.1032C16.8 22.3366 16.8778 22.5116 17.0333 22.6282C17.1889 22.7449 17.3444 22.8032 17.5 22.8032C17.6556 22.8032 17.8111 22.7449 17.9667 22.6282C18.1222 22.5116 18.2 22.356 18.2 22.1616C18.2 21.9671 18.1222 21.8116 17.9667 21.6949C17.8111 21.5782 17.6556 21.5199 17.5 21.5199C17.3444 21.5199 17.1889 21.5782 17.0333 21.6949C16.8778 21.8116 16.8 21.9477 16.8 22.1032ZM20.3 22.1032C20.3 22.3366 20.3778 22.5116 20.5333 22.6282C20.6889 22.7449 20.8444 22.8032 21 22.8032C21.1556 22.8032 21.3111 22.7449 21.4667 22.6282C21.6222 22.5116 21.7 22.356 21.7 22.1616C21.7 21.9671 21.6222 21.8116 21.4667 21.6949C21.3111 21.5782 21.1556 21.5199 21 21.5199C20.8444 21.5199 20.6889 21.5782 20.5333 21.6949C20.3778 21.8116 20.3 21.9477 20.3 22.1032ZM6.53333 22.8032C5.6 22.8032 4.74444 22.5505 3.96667 22.0449C3.18889 21.5394 2.625 20.8588 2.275 20.0032C1.925 19.1477 1.84722 18.2532 2.04167 17.3199C2.23611 16.3866 2.66389 15.5894 3.325 14.9282C3.98611 14.2671 4.76389 13.8588 5.65833 13.7032C6.55278 13.5477 7.42778 13.6449 8.28333 13.9949C9.13889 14.3449 9.83889 14.9088 10.3833 15.6866C10.9278 16.4644 11.2 17.3199 11.2 18.2532C11.2 19.4977 10.7528 20.5671 9.85833 21.4616C8.96389 22.356 7.85556 22.8032 6.53333 22.8032ZM6.53333 14.9866C5.91111 14.9866 5.32778 15.1616 4.78333 15.5116C4.23889 15.8616 3.83056 16.3477 3.55833 16.9699C3.28611 17.5921 3.22778 18.2338 3.38333 18.8949C3.53889 19.556 3.85 20.1005 4.31667 20.5282C4.78333 20.956 5.32778 21.2477 5.95 21.4032C6.57222 21.5588 7.19444 21.5005 7.81667 21.2282C8.43889 20.956 8.925 20.5477 9.275 20.0032C9.625 19.4588 9.8 18.8755 9.8 18.2532C9.8 17.3199 9.48889 16.5421 8.86667 15.9199C8.24444 15.2977 7.46667 14.9866 6.53333 14.9866ZM12.4833 31.0866H0.7C0.466667 31.0866 0.291667 31.0282 0.175 30.9116C0.0583333 30.7949 0 30.6199 0 30.3866V28.0532C0 26.2644 0.641667 24.7282 1.925 23.4449C3.20833 22.1616 4.76389 21.5199 6.59167 21.5199C8.41944 21.5199 9.95556 22.1616 11.2 23.4449C12.4444 24.7282 13.1056 26.2644 13.1833 28.0532V30.3866C13.1833 30.6199 13.1056 30.7949 12.95 30.9116C12.7944 31.0282 12.6389 31.0866 12.4833 31.0866ZM1.4 29.6866H11.7833V28.0532C11.7833 26.6532 11.2778 25.4477 10.2667 24.4366C9.25556 23.4255 8.03056 22.9199 6.59167 22.9199C5.15278 22.9199 3.92778 23.4255 2.91667 24.4366C1.90556 25.4477 1.4 26.6532 1.4 28.0532V29.6866ZM28.4667 22.8032C27.5333 22.8032 26.6778 22.5505 25.9 22.0449C25.1222 21.5394 24.5583 20.8588 24.2083 20.0032C23.8583 19.1477 23.7611 18.2532 23.9167 17.3199C24.0722 16.3866 24.4806 15.5894 25.1417 14.9282C25.8028 14.2671 26.6 13.8588 27.5333 13.7032C28.4667 13.5477 29.3611 13.6449 30.2167 13.9949C31.0722 14.3449 31.7528 14.9088 32.2583 15.6866C32.7639 16.4644 33.0167 17.3199 33.0167 18.2532C33.0167 19.4977 32.5694 20.5671 31.675 21.4616C30.7806 22.356 29.7111 22.8032 28.4667 22.8032ZM28.4667 14.9866C27.7667 14.9866 27.1444 15.1616 26.6 15.5116C26.0556 15.8616 25.6667 16.3477 25.4333 16.9699C25.2 17.5921 25.1417 18.2338 25.2583 18.8949C25.375 19.556 25.6667 20.1005 26.1333 20.5282C26.6 20.956 27.1639 21.2477 27.825 21.4032C28.4861 21.5588 29.1083 21.5005 29.6917 21.2282C30.275 20.956 30.7417 20.5477 31.0917 20.0032C31.4417 19.4588 31.6167 18.8755 31.6167 18.2532C31.6167 17.3199 31.3056 16.5421 30.6833 15.9199C30.0611 15.2977 29.3222 14.9866 28.4667 14.9866ZM34.3 31.0866H22.5167C22.3611 31.0866 22.2056 31.0282 22.05 30.9116C21.8944 30.7949 21.8167 30.6199 21.8167 30.3866V28.0532C21.8944 26.2644 22.5556 24.7282 23.8 23.4449C25.0444 22.1616 26.5806 21.5199 28.4083 21.5199C30.2361 21.5199 31.7917 22.1616 33.075 23.4449C34.3583 24.7282 35 26.2644 35 28.0532V30.3866C35 30.6199 34.9417 30.7949 34.825 30.9116C34.7083 31.0282 34.5333 31.0866 34.3 31.0866ZM23.2167 29.6866H33.6V28.0532C33.6 26.6532 33.0944 25.4477 32.0833 24.4366C31.0722 23.4255 29.8472 22.9199 28.4083 22.9199C26.9694 22.9199 25.7444 23.4255 24.7333 24.4366C23.7222 25.4477 23.2167 26.6532 23.2167 28.0532V29.6866ZM14.35 18.0199C14.1944 18.0199 14.0389 17.9616 13.8833 17.8449C13.7278 17.7282 13.65 17.5921 13.65 17.4366V15.3366H13.0667C12.4444 15.3366 11.9 15.1227 11.4333 14.6949C10.9667 14.2671 10.7333 13.7421 10.7333 13.1199V6.46991C10.7333 5.84769 10.9667 5.32269 11.4333 4.89491C11.9 4.46713 12.4444 4.25324 13.0667 4.25324H21.8167C22.4389 4.25324 22.9639 4.46713 23.3917 4.89491C23.8194 5.32269 24.0333 5.84769 24.0333 6.46991V13.1199C24.0333 13.7421 23.8194 14.2671 23.3917 14.6949C22.9639 15.1227 22.4389 15.3366 21.8167 15.3366H17.3833L14.8167 17.9032C14.7389 18.0588 14.5833 18.0977 14.35 18.0199ZM13.0667 5.65324C12.8333 5.65324 12.6194 5.73102 12.425 5.88658C12.2306 6.04213 12.1333 6.23658 12.1333 6.46991V13.1199C12.1333 13.3532 12.2306 13.5671 12.425 13.7616C12.6194 13.956 12.8333 14.0532 13.0667 14.0532H14.35C14.5833 14.0532 14.7583 14.1116 14.875 14.2282C14.9917 14.3449 15.05 14.481 15.05 14.6366V15.6866L16.5667 14.1699C16.7222 14.0921 16.8778 14.0532 17.0333 14.0532H21.8167C22.05 14.0532 22.2639 13.956 22.4583 13.7616C22.6528 13.5671 22.75 13.3532 22.75 13.1199V6.46991C22.75 6.23658 22.6528 6.04213 22.4583 5.88658C22.2639 5.73102 22.05 5.65324 21.8167 5.65324H13.0667Z" fill="#1A1A1A"/>
</g>
<defs>
<clipPath id="clip0_1_854">
<rect width="35" height="35" fill="white" transform="matrix(1 0 0 -1 0 35.1699)"/>
</clipPath>
</defs>
</svg>
